<svg xmlns="http://www.w3.org/2000/svg" width="396" height="373.758" viewBox="0 0 396 373.758">
  <g id="logo-branca" transform="translate(2386 -12.563)">
    <path id="Caminho_174" data-name="Caminho 174" d="M256.3,618.59c-6.05-19.53-19.23-32.62-37.61-40.74a59.268,59.268,0,0,0-30.09-4.58c-8.41.82-16.37,2.76-23.8,6.77-.63,2.38.75,1.87,2.13,1.57,3.11-.69,4.4.37,4.23,3.58a28.148,28.148,0,0,1-1.18,6.61c-2.65,8.51-7.64,15.73-12.75,22.86-3.43,4.76-7.7,8.95-9.9,14.51a4.977,4.977,0,0,1-5.08,3.54c-2.52.03-5.04-.12-7.56.12-.65.06-1.41.23-1.43,1.05-.01,1.02.79,1.11,1.58,1.09q60.135,0,120.27-.01c1.01,0,2.07.32,3.02-.3a41.54,41.54,0,0,0-1.84-16.06Zm-82.12-5.15a3.56,3.56,0,0,1-3.5-3.58,3.484,3.484,0,0,1,3.35-3.7,3.842,3.842,0,0,1,3.69,3.79,3.433,3.433,0,0,1-3.54,3.5ZM187.94,602a3.7,3.7,0,0,1-3.37-3.79,3.171,3.171,0,0,1,3.48-3.47c2.19.04,3.27,1.25,3.24,3.61a3.361,3.361,0,0,1-3.35,3.64Z" transform="translate(-2386 -423)" fill="#fff"/>
    <path id="Caminho_186" data-name="Caminho 186" d="M225,567.31c-4.94-1.73-9.75-3.85-14.94-4.8-11.44-2.09-22.86-2.36-34.16.81-2.17.61-2.86.21-2.6-2.06.71-6.2,1.33-12.41,1.96-18.62.58-5.73.69-11.4-1.86-16.8-4.03-8.56-10.73-13.55-20.1-14.7-2.13-.26-2.82-.96-2.42-2.94a2.3,2.3,0,0,0,.57-1.94c0-1.93,1.05-2.57,2.7-2.73,1.21-.12,2.43-.11,3.65-.11,18.73,0,37.47.24,56.19-.11,7.97-.15,11.88,5.1,11.87,12q-.045,20.235,0,40.46c0,3.18-.19,6.38.62,9.5.36,1.4-.3,1.87-1.49,2.04Z" transform="translate(-2386 -423)" fill="#fff"/>
    <path id="Caminho_192" data-name="Caminho 192" d="M319.39,541.96c.74,6.71-.99,12.56-5.78,17.49-1.85,1.9-1.12,4.59-.72,6.7.77,4.08.46,8.19.87,12.27,1.09,10.83,1.58,21.72,2.4,32.59.45,5.94,1.01,11.87,1.64,17.79.97,9.2-5.54,14.94-13.64,11.92-4.41-1.64-6.96-6.42-5.94-12.06.77-4.26.65-8.56.91-12.81.71-11.54,1.78-23.06,1.92-34.65.09-6.88,1.62-13.8.87-20.65-1.93-17.54-.51-35.11-.97-52.66a24.825,24.825,0,0,1,.43-6.12c.87-3.83,4.58-5.12,7.78-2.48a26.558,26.558,0,0,1,6.87,9.41,28.339,28.339,0,0,1,3.01,10.66c.38,6.42.05,12.85.18,19.27a10.349,10.349,0,0,0,.18,3.33Z" transform="translate(-2386 -423)" fill="#fff"/>
    <path id="Caminho_193" data-name="Caminho 193" d="M277.24,551.48c2.12-1.85,2.93-1.62,3.57,1.01.47,4.16-.18,8.35.35,12.5,1.65,2.82,3.57,2.82,5.27,0,.51-4.51-.22-9.06.38-13.57,2.12-1.63,2.78-1.32,3.56,1.67.36,6.52.05,13.04.16,19.55a8.941,8.941,0,0,0,.18,3.05c.74,6.72-.98,12.58-5.79,17.49-1.8,1.83-1.11,4.43-.71,6.43.8,3.99.35,8,.84,12,.82,6.74.81,13.58,1.31,20.36.36,4.91.92,9.82,1.53,14.71.31,2.5.14,5.01.51,7.53a84.342,84.342,0,0,1,.74,12c.02,4.73-3.21,8.05-8.17,8.86a9.751,9.751,0,0,1-10.6-5.58,12.045,12.045,0,0,1-.83-7.15c.88-4.25.65-8.56.91-12.82.72-11.55,1.77-23.07,1.94-34.67.08-6.03.74-12.09,1.01-18.14a7.3,7.3,0,0,0-1.84-5.39,15.075,15.075,0,0,1-3.88-7.67c-.47-3.21-.08-6.43-.21-9.64.09-3.03-.19-6.07.16-9.09.04-3.36.07-6.72.12-10.09a12.811,12.811,0,0,1,.17-2.23c.21-1.08.79-2,1.99-2.03,1.41-.04,1.58,1.2,1.63,2.19.13,2.7.13,5.41.17,8.12.02,1.03.03,2.05.02,3.08-.02,1.29.25,2.62,1.54,3.03a2.684,2.684,0,0,0,3.5-1.43c.58-3.68.09-7.38.26-11.07a8.759,8.759,0,0,1,.2-3.02Z" transform="translate(-2386 -423)" fill="#fff"/>
    <path id="Caminho_194" data-name="Caminho 194" d="M140.7,693.26c-6.92-.81-10.17-4.42-10.16-11.27,0-.93.05-1.87.08-2.8a.852.852,0,0,1,.96-.14c40.47.18,80.95-.03,121.43.08,1.43,0,2.87,0,4.3-.13a1.178,1.178,0,0,1,1.42.17c.02.74.04,1.48.05,2.22.06,7.7-3.04,11.13-10.71,11.87a5.218,5.218,0,0,1-2.22.18H142.92a5.382,5.382,0,0,1-2.22-.18Z" transform="translate(-2386 -423)" fill="#fff"/>
    <path id="Caminho_195" data-name="Caminho 195" d="M229,646.96c2.8.55,4.48,2.5,6.03,4.69,1.4,1.98,2.9,3.98,5.53,4.37,3.65.54,6.38-.93,8.23-4.09.33-.57.61-1.16.91-1.74,1.12-2.2,2.72-3.6,5.38-3.03a6.086,6.086,0,0,1,4.29,5.62c.18,7.75-4.32,12.76-12.94,14.59a18.537,18.537,0,0,1-15.2-3.16c-3.05-2.17-5.92-4.59-8.79-7-6.28-5.26-14.24-4.61-19.36,2.15-6.74,8.9-17.69,11.03-25.86,5.62a18.229,18.229,0,0,1-4.98-5.62c-4.1-6.3-11-7.68-17.3-3.46-1.79,1.2-3.4,2.65-5.19,3.84-4.89,3.26-9.98,5.16-15.68,1.85-4.04-2.34-5.85-7.37-4-11.38.76-1.65,1.78-3.12,3.92-3.11,13.33-.02,26.65-.21,39.98.08,1.12.02,2.2.4,3.32.36.36.21.72.42,1.07.63,1.08.89.33,3.04,2.28,3.34,1.57,2.07,2.95,4.36,5.98,4.56,3.93.25,6.24-1.94,7.88-5.15,1.11-2.16,2.4-4.05,5.2-4,9.77-.26,19.55-.3,29.32.02Z" transform="translate(-2386 -423)" fill="#fff"/>
    <path id="Caminho_175" data-name="Caminho 175" d="M163.7,539.05a7.326,7.326,0,0,1-3.83.59q-37.44.045-74.9.04a14.623,14.623,0,0,1-4.13-.36l-.3-.09c-2.36-5.69,2.56-15.53,9.4-16.51.43-.19.86-.37,1.3-.58a12.1,12.1,0,0,1,4.43-.49q25.905,0,51.84.03a13.717,13.717,0,0,1,3.99.35c.14.04.3.09.45.14a12.234,12.234,0,0,1,9.03,5.67c2.86,3.25,2.95,7.18,2.74,11.2Z" transform="translate(-2386 -423)" fill="#fff"/>
    <path id="Caminho_176" data-name="Caminho 176" d="M164.8,580.05a4.26,4.26,0,0,0,2.72-.32c3.34-1.05,5.06.09,5.16,3.6a29.736,29.736,0,0,1-2.78,13.33,106.408,106.408,0,0,1-14.13,22.4c-3.18,3.93-6.42,7.79-7.7,12.85-.49,1.92-2.09,2.12-3.77,2.21-3.44.18-6.91-.42-10.32.49a5.239,5.239,0,0,1-3.93.07c.08-17.9,7.33-32.54,20.28-44.57a64.832,64.832,0,0,1,14.47-10.05Z" transform="translate(-2386 -423)" fill="#fff"/>
    <path id="Caminho_196" data-name="Caminho 196" d="M241.4,513.27c2.34,0,4.69.11,7.02-.05,2.26-.16,3.26.53,3.07,2.95s-.04,4.86-.04,7.3v62.52c-3.67-3.1-6.54-6.29-10.1-8.65-.48-.57-.3-1.25-.3-1.89V515.13c0-.63-.2-1.32.34-1.86Z" transform="translate(-2386 -423)" fill="#fff"/>
    <path id="Caminho_187" data-name="Caminho 187" d="M225,567.31c-1.18-16.35-.23-32.72-.53-49.08a30.719,30.719,0,0,0-.48-6.42c-1.04-4.43-3.77-6.91-8.29-6.93-19.74-.07-39.48.02-59.23-.05a5.7,5.7,0,0,0-5.57,3.37c-.02-2.61-.04-5.23-.07-7.84a6.107,6.107,0,0,1,3.54-.19c3.68.32,7.38.14,11.07.14,19.79-.02,39.58.09,59.37-.02,1.26,0,2.86-.39,3.77,1.1.22,20.5.04,41,.1,61.5v5.06c0,.58-.04,1.16-.89,1.04L225,567.31Z" transform="translate(-2386 -423)" fill="#fff"/>
    <path id="Caminho_177" data-name="Caminho 177" d="M125.52,511.05a.583.583,0,0,0,.03.14c.17,0,.35,0,.52.01-.17-.04-.36-.1-.55-.16Zm-.01-.12a.176.176,0,0,0,.01.06.11.11,0,0,1,.03-.06Z" transform="translate(-2386 -423)" fill="#fff"/>
    <path id="Caminho_178" data-name="Caminho 178" d="M250.93,500.26a16.7,16.7,0,0,0-.42-4.16c-3.04-11.13-11.36-16.51-21.55-19.87-3.38-.56-6.61-2.1-10.16-1.68-.35-.04-.71-.07-1.05-.12a.831.831,0,0,0-.26-.14,4.222,4.222,0,0,0-1.66-.12h-54.7a4.109,4.109,0,0,0-1.64.12,1.706,1.706,0,0,0-.27.14l.03.03c-3.08-.3-6,.58-8.95,1.22a41.536,41.536,0,0,0-12.45,4.79,26.067,26.067,0,0,0-12.78,19.28c-.01,3.71-.03,7.41-.04,11.13.13.33.29.39.47.14l.03-.03h0s-.01-.06-.01-.07h.04q4.485.015,8.95.06c.01-2.14.16-4.3.03-6.43a17.279,17.279,0,0,1,2.68-10.64c1.6-2.48,3.53-4.62,6.75-4.89q43.935,0,87.85.03c-.72-.49-1.55-.1-2.32-.32-.07-.1-.16-.22-.24-.32a8.212,8.212,0,0,0-1.11-1.17,2.428,2.428,0,0,1,1.43,1.17c.76.17,1.63,0,2.25.63,4.75.32,8.97,5.31,9.59,10.78.43,3.73.32,7.44.49,11.16a31.6,31.6,0,0,0,9.11.06,59.707,59.707,0,0,0-.07-10.78ZM187.42,485.3a3.45,3.45,0,1,1,3.45-3.45A3.468,3.468,0,0,1,187.42,485.3Zm5.89-3.25c-.09-.04-.19-.1-.27-.13a.661.661,0,0,1,.01-.14,3.665,3.665,0,0,0,.6.36l-.35-.09Zm.37.09a15.806,15.806,0,0,0,2.71.45A6.372,6.372,0,0,1,193.68,482.14Z" transform="translate(-2386 -423)" fill="#fff"/>
    <path id="Caminho_197" data-name="Caminho 197" d="M231.81,489.05c-.72-.49-1.55-.1-2.32-.32-.07-.1-.16-.22-.24-.32a8.212,8.212,0,0,0-1.11-1.17,2.428,2.428,0,0,1,1.43,1.17c.76.17,1.63,0,2.25.63Z" transform="translate(-2386 -423)" fill="#fff"/>
    <path id="Caminho_179" data-name="Caminho 179" d="M108.22,511.05c-4.4-.04-4.32-.17-4.63-4.54-.34-4.9-1.11-9.77-1.66-14.66-.12-1.08-.95-1.3-1.69-1.64-2.47-1.11-4.96-2.19-7.44-3.28-2.55-1.13-3.43-2.96-2.58-5.36.73-2.06,3.4-3.74,5.37-3.01a90.119,90.119,0,0,1,12.53,5.62,3.527,3.527,0,0,1,1.7,3.02c.64,6.17,1.42,12.33,2.15,18.49.05.46.08.93.11,1.4q.21,4.01-3.85,3.98Z" transform="translate(-2386 -423)" fill="#fff"/>
    <path id="Caminho_198" data-name="Caminho 198" d="M193.65,482.14l-.35-.09c-.09-.04-.19-.1-.27-.13a.661.661,0,0,1,.01-.14,3.665,3.665,0,0,0,.6.36Z" transform="translate(-2386 -423)" fill="#fff"/>
    <path id="Caminho_199" data-name="Caminho 199" d="M196.39,482.59a6.372,6.372,0,0,1-2.71-.45A15.806,15.806,0,0,0,196.39,482.59Z" transform="translate(-2386 -423)" fill="#fff"/>
    <path id="Caminho_200" data-name="Caminho 200" d="M131.23,679.23c-.2-.01-.4-.03-.61-.04a8.829,8.829,0,0,1,4.39-.64q59.8-.015,119.6,0a7.754,7.754,0,0,1,4.11.62c-.4.02-.79.03-1.19.05a5.74,5.74,0,0,1-2.22.17H133.45a6.451,6.451,0,0,1-2.23-.15Z" transform="translate(-2386 -423)" fill="#fff"/>
    <path id="Caminho_201" data-name="Caminho 201" d="M130.05,634.67c1.31-.02,2.62-.05,3.93-.07q43.545.06,87.08.11,18.54,0,37.08-.06c-1.16.88-2.52.58-3.8.58q-60.825.03-121.64,0c-.91,0-1.9.25-2.65-.55Z" transform="translate(-2386 -423)" fill="#fff"/>
    <path id="Caminho_202" data-name="Caminho 202" d="M100.79,663.36a3.886,3.886,0,0,1,3.32.93,10.072,10.072,0,0,0,6.21,1.87c3.42-.28,6.8.41,10.2.48.59.79,1.17,1.58,2.15,2.9-5.55-.1-10.46.71-15.29-.65-2.96-.84-5.45-2.43-6.59-5.53Z" transform="translate(-2386 -423)" fill="#fff"/>
    <path id="Caminho_203" data-name="Caminho 203" d="M140.7,693.26q20.655-.03,41.32-.07,31.77-.03,63.53-.04c.84,0,1.68.06,2.52.1a14.5,14.5,0,0,1-4.73.45H145.43a15.1,15.1,0,0,1-4.73-.45Z" transform="translate(-2386 -423)" fill="#fff"/>
    <path id="Caminho_188" data-name="Caminho 188" d="M162.7,551.51a2.459,2.459,0,0,0-.2-1.3A1.6,1.6,0,0,1,162.7,551.51Z" transform="translate(-2386 -423)" fill="#fff"/>
    <path id="Caminho_204" data-name="Caminho 204" d="M231.81,489.05c-.72-.49-1.55-.1-2.32-.32-.07-.1-.16-.22-.24-.32a8.212,8.212,0,0,0-1.11-1.17,2.428,2.428,0,0,1,1.43,1.17c.76.17,1.63,0,2.25.63Z" transform="translate(-2386 -423)" fill="#fff"/>
    <path id="Caminho_180" data-name="Caminho 180" d="M162.7,551.51c-.04.36-.1.71-.14,1.07-.42,4.33-.88,8.67-1.19,13.01-.22,2.85-1.84,4.28-4.4,4.95-10.22,6.13-19.26,13.57-26.08,23.49-7.97,11.57-12.7,24.23-13.32,38.41-.22,4.71-.98,9.28,1.47,13.63a1.6,1.6,0,0,1-.1,1.31c-3.35,6.75-1.74,13.07,1.6,19.26.19,1.71-.43,2.2-2.13,1.63-2.75-.94-5.74-.3-8.51-1.17a2.489,2.489,0,0,1-.2-.32c-1.32,1.05-3.05.73-5.14-.75-1.25-.89-2.19-2.25-3.76-2.68-2.63-4.23-2.3-9.18-3.28-13.79-1.78-8.46-3.14-17.04-4.42-25.58-2.39-15.85-5.24-31.61-7.51-47.46-1.09-7.63-2.5-15.22-3.77-22.82.46-1.24-1.4-2.71.37-3.83a3.231,3.231,0,0,0,.91.2c-.3-.06-.6-.13-.91-.2,2.71-.04,5.41-.12,8.12-.12q34.62-.015,69.21.04c.92,0,2.45-.65,2.99.4a2.459,2.459,0,0,1,.2,1.3Z" transform="translate(-2386 -423)" fill="#fff"/>
    <path id="Caminho_189" data-name="Caminho 189" d="M154.26,500.38c-1.14,0-2.29-.01-3.43-.02a5.768,5.768,0,0,1,3.53-.62q35.49,0,70.97.03a6.19,6.19,0,0,1,3.54.61,1.46,1.46,0,0,1-.98.44,14.167,14.167,0,0,0-3.62-.21q-33.48,0-66.96-.01a7.273,7.273,0,0,1-3.04-.21Z" transform="translate(-2386 -423)" fill="#fff"/>
    <path id="Caminho_205" data-name="Caminho 205" d="M228.32,500.38h.54q.03,33.12.03,66.24c0,.83.51,2.18-1.11,2.37a5.091,5.091,0,0,0,.63-2.98q-.03-32.3-.07-64.6a.631.631,0,0,1-.02-1.03Z" transform="translate(-2386 -423)" fill="#fff"/>
    <path id="Caminho_206" data-name="Caminho 206" d="M241.4,513.27q-.015,32.025-.04,64.06a7.939,7.939,0,0,1-.62-4.11q0-27.78.04-55.56a9.331,9.331,0,0,1,.62-4.4Z" transform="translate(-2386 -423)" fill="#fff"/>
    <path id="Caminho_190" data-name="Caminho 190" d="M217.75,474.44H159.22c1.11-.71,2.36-.5,3.56-.5q25.845-.045,51.7,0a5.452,5.452,0,0,1,3.27.51Z" transform="translate(-2386 -423)" fill="#fff"/>
    <path id="Caminho_207" data-name="Caminho 207" d="M177.27,647.56c-2.78.67-5.58.03-8.37.04-10.17.05-20.34.02-30.51.02a12.246,12.246,0,0,1-4.42-.51,1.689,1.689,0,0,1,.5-.14c6.9-.44,13.8-.15,20.7-.17,6.62-.01,13.25-.24,19.86.14a3.954,3.954,0,0,1,2.24.62Z" transform="translate(-2386 -423)" fill="#fff"/>
    <path id="Caminho_208" data-name="Caminho 208" d="M210.43,667.87c4.67-3.81,5.5-3.81,10.6.02.13.43-.03.77-.46.78-3.23.05-6.46.06-9.69,0-.43,0-.58-.37-.45-.79Z" transform="translate(-2386 -423)" fill="#fff"/>
    <path id="Caminho_209" data-name="Caminho 209" d="M175.03,646.94q-20.28,0-40.56.02a2.761,2.761,0,0,1,.54-.16c13.07-.55,26.15-.42,39.23-.12a2.74,2.74,0,0,1,.8.25Z" transform="translate(-2386 -423)" fill="#fff"/>
    <path id="Caminho_210" data-name="Caminho 210" d="M157.4,668.48c3.72-4.31,4.56-4.37,9.82-.65a.671.671,0,0,1-.76.86c-3.02-.09-6.05.3-9.06-.2Z" transform="translate(-2386 -423)" fill="#fff"/>
    <path id="Caminho_211" data-name="Caminho 211" d="M229,646.96q-14.655,0-29.32-.02c5.76-.93,11.55-.36,17.33-.41C221,646.5,225.04,645.99,229,646.96Z" transform="translate(-2386 -423)" fill="#fff"/>
    <path id="Caminho_212" data-name="Caminho 212" d="M290.71,575.69c-.75-7.52-.49-15.06-.35-22.6A205.273,205.273,0,0,1,290.71,575.69Z" transform="translate(-2386 -423)" fill="#fff"/>
    <path id="Caminho_213" data-name="Caminho 213" d="M319.39,541.96c-.76-7.52-.47-15.06-.36-22.59C319.75,526.89,319.51,534.43,319.39,541.96Z" transform="translate(-2386 -423)" fill="#fff"/>
    <path id="Caminho_214" data-name="Caminho 214" d="M277.24,551.48c-.16,4.7.59,9.42-.47,14.09C276.9,560.87,276.27,556.15,277.24,551.48Z" transform="translate(-2386 -423)" fill="#fff"/>
    <path id="Caminho_215" data-name="Caminho 215" d="M286.8,551.42c-.24,4.52.58,9.07-.38,13.57C286.51,560.47,285.77,555.92,286.8,551.42Z" transform="translate(-2386 -423)" fill="#fff"/>
    <path id="Caminho_216" data-name="Caminho 216" d="M210.43,667.87a21.852,21.852,0,0,0,10.6.02c.42.41.51.97-.15.98-3.3.07-6.6.04-9.9-.01-.51,0-.78-.42-.56-.99Z" transform="translate(-2386 -423)" fill="#fff"/>
    <path id="Caminho_217" data-name="Caminho 217" d="M281.16,564.99c-.82-4.15-.41-8.33-.35-12.5C281.53,556.64,281.24,560.82,281.16,564.99Z" transform="translate(-2386 -423)" fill="#fff"/>
    <path id="Caminho_218" data-name="Caminho 218" d="M157.4,668.48c3.27-.32,6.61.53,9.82-.65.45.48.31,1.02-.25,1.01C163.78,668.77,160.55,669.55,157.4,668.48Z" transform="translate(-2386 -423)" fill="#fff"/>
    <path id="Caminho_181" data-name="Caminho 181" d="M125.55,510.93a.163.163,0,0,0-.03.06c-.01-.01-.01-.04-.01-.06Z" transform="translate(-2386 -423)" fill="#fff"/>
    <path id="Caminho_219" data-name="Caminho 219" d="M250.85,510.93c.03-3.56.05-7.12.08-10.67,1.14,3.5.29,7.09.46,10.63-.15.38-.33.39-.54.05Z" transform="translate(-2386 -423)" fill="#fff"/>
    <path id="Caminho_220" data-name="Caminho 220" d="M180.62,651.53c-2.67.19-2.06-1.86-2.28-3.34A7.42,7.42,0,0,1,180.62,651.53Z" transform="translate(-2386 -423)" fill="#fff"/>
    <path id="Caminho_221" data-name="Caminho 221" d="M250.85,510.93a3.287,3.287,0,0,0,.54-.05,16.109,16.109,0,0,1-9.5.1c2.98-.02,5.97-.03,8.95-.05Z" transform="translate(-2386 -423)" fill="#fff"/>
    <path id="Caminho_222" data-name="Caminho 222" d="M267.68,573.91v9.75c-1.01-3.18-.34-6.42-.39-9.64.03-.16.05-.31.08-.47.1.12.21.24.31.36Z" transform="translate(-2386 -423)" fill="#fff"/>
    <path id="Caminho_182" data-name="Caminho 182" d="M134.5,510.99a16.553,16.553,0,0,1-8.44.22c-.17-.04-.36-.1-.55-.16v-.06a.155.155,0,0,1,.03-.06q4.485.015,8.95.06Z" transform="translate(-2386 -423)" fill="#fff"/>
    <path id="Caminho_183" data-name="Caminho 183" d="M125.52,511v.04a.077.077,0,0,1-.03-.01Z" transform="translate(-2386 -423)" fill="#fff"/>
    <path id="Caminho_184" data-name="Caminho 184" d="M125.55,510.93a.163.163,0,0,0-.03.06c-.01-.01-.01-.04-.01-.06Z" transform="translate(-2386 -423)" fill="#fff"/>
    <path id="Caminho_223" data-name="Caminho 223" d="M267.68,573.91c-.13.04-.26.08-.39.11a36.887,36.887,0,0,1,.34-9.09c.02,2.99.04,5.99.05,8.98Z" transform="translate(-2386 -423)" fill="#fff"/>
    <path id="Caminho_224" data-name="Caminho 224" d="M38.94,774.12c.04-.08.09-.17.13-.25.61-1.01,1.32-1.88,2.68-1.5.19.05.46.49.4.62-.52,1.19-1.66.98-2.65,1.07-.19.02-.37.04-.56.05h0Z" transform="translate(-2386 -423)" fill="#fff"/>
    <path id="Caminho_225" data-name="Caminho 225" d="M131.23,679.23q28.215-.06,56.42-.12,32.415-.03,64.84,0c1.68,0,3.37.07,5.05.11a13.036,13.036,0,0,1-4.17.45H135.4a13.029,13.029,0,0,1-4.17-.44Z" transform="translate(-2386 -423)" fill="#fff"/>
    <path id="Caminho_191" data-name="Caminho 191" d="M228.32,500.38c0,.34.01.69.02,1.03a23.92,23.92,0,0,0-6.14-.53H159.55a15.487,15.487,0,0,1-5.29-.49h74.06Z" transform="translate(-2386 -423)" fill="#fff"/>
    <path id="Caminho_226" data-name="Caminho 226" d="M193.65,482.14l-.35-.09c-.09-.04-.19-.1-.27-.13a.661.661,0,0,1,.01-.14,3.665,3.665,0,0,0,.6.36Z" transform="translate(-2386 -423)" fill="#fff"/>
    <path id="Caminho_227" data-name="Caminho 227" d="M196.39,482.59a6.372,6.372,0,0,1-2.71-.45A15.806,15.806,0,0,0,196.39,482.59Z" transform="translate(-2386 -423)" fill="#fff"/>
    <path id="Caminho_228" data-name="Caminho 228" d="M229.57,488.42h-.32a8.212,8.212,0,0,0-1.11-1.17,2.428,2.428,0,0,1,1.43,1.17Z" transform="translate(-2386 -423)" fill="#fff"/>
    <text id="Yellow_Software" data-name="Yellow Software" transform="translate(-2386 376.32)" fill="#fff" font-size="48.56" font-family="ArialRoundedMTBold, Arial Rounded MT" letter-spacing="-0.03em"><tspan x="0" y="0">Y</tspan><tspan y="0" letter-spacing="0.03em">ellow Soft</tspan><tspan y="0" letter-spacing="0.02em">w</tspan><tspan y="0" letter-spacing="0.03em">a</tspan><tspan y="0" letter-spacing="0.03em">r</tspan><tspan y="0" letter-spacing="0.03em">e</tspan></text>
    <path id="Caminho_229" data-name="Caminho 229" d="M194.2,436.29l2.6,5.27a1.313,1.313,0,0,0,.98.71l5.82.85a1.3,1.3,0,0,1,.72,2.22l-4.21,4.1a1.269,1.269,0,0,0-.37,1.15l.99,5.8a1.3,1.3,0,0,1-1.89,1.37l-5.21-2.74a1.3,1.3,0,0,0-1.21,0l-5.21,2.74a1.3,1.3,0,0,1-1.89-1.37l.99-5.8a1.324,1.324,0,0,0-.37-1.15l-4.21-4.1a1.3,1.3,0,0,1,.72-2.22l5.82-.85a1.313,1.313,0,0,0,.98-.71l2.6-5.27a1.3,1.3,0,0,1,2.33,0Z" transform="translate(-2386 -423)" fill="#fff"/>
    <path id="Caminho_185" data-name="Caminho 185" d="M116.96,473a3.88,3.88,0,0,1-2.19-7.08,140.737,140.737,0,0,1,40.03-19,3.876,3.876,0,0,1,2.18,7.44,132.921,132.921,0,0,0-37.83,17.95,3.848,3.848,0,0,1-2.19.68Z" transform="translate(-2386 -423)" fill="#fff"/>
    <path id="Caminho_173" data-name="Caminho 173" d="M194.9,725.52c-78.39,0-142.17-63.78-142.17-142.17a141.064,141.064,0,0,1,26.36-82.47,3.878,3.878,0,0,1,6.31,4.51,133.408,133.408,0,0,0-24.92,77.97c0,74.12,60.3,134.41,134.41,134.41a134.062,134.062,0,0,0,113.13-61.78,3.878,3.878,0,0,1,6.52,4.2,141.776,141.776,0,0,1-119.65,65.34Z" transform="translate(-2386 -423)" fill="#fff"/>
    <path id="Caminho_230" data-name="Caminho 230" d="M295.45,492.31a3.858,3.858,0,0,1-2.82-1.22,134.353,134.353,0,0,0-60.82-37.03,3.878,3.878,0,0,1,2.12-7.46,141.968,141.968,0,0,1,64.34,39.16,3.88,3.88,0,0,1-2.82,6.54Z" transform="translate(-2386 -423)" fill="#fff"/>
  </g>
</svg>
